<?xml version="1.0" encoding="utf-8"?>
<!-- Generator: Adobe Illustrator 27.5.0, SVG Export Plug-In . SVG Version: 6.00 Build 0)  -->
<svg version="1.1" id="Layer_1" xmlns="http://www.w3.org/2000/svg" xmlns:xlink="http://www.w3.org/1999/xlink" x="0px" y="0px"
	 viewBox="0 0 512 512" style="enable-background:new 0 0 512 512;" xml:space="preserve">
<style type="text/css">
	.st0{fill:#4285F4;}
	.st1{fill:#DB4437;}
	.st2{fill:#0F9D58;}
</style>
<g>
	<path class="st0" d="M465.7,83.2V402c0,13.2-11.5,23.3-24.6,21.6c-53.6-7.4-96.5-33.1-126.9-80.3c-41.8-64.8-42.2-132.3-2.4-198
		c33.7-55.7,89.7-79.6,129.9-84C454.6,59.9,465.7,70,465.7,83.2"/>
	<path class="st1" d="M46.3,117.3v318.8c0,13.2,11.5,23.3,24.6,21.6c53.6-7.4,96.5-33.1,126.9-80.3c41.8-64.8,42.2-132.3,2.4-198
		c-33.7-55.7-89.7-79.6-129.9-84C57.4,94,46.3,104.1,46.3,117.3"/>
	<path class="st2" d="M268.7,453c-25.6,0.3-46.2-20.9-45.9-46.9c0-25.3,20.6-45.9,46.6-45.5c25.6,0,46.2,20.9,45.9,46.9
		C315.2,432.7,294.3,453,268.7,453"/>
</g>
</svg>
