<?xml version="1.0" encoding="utf-8"?>
<!-- Generator: Adobe Illustrator 27.7.0, SVG Export Plug-In . SVG Version: 6.00 Build 0)  -->
<svg version="1.1" id="Layer_1" xmlns="http://www.w3.org/2000/svg" xmlns:xlink="http://www.w3.org/1999/xlink" x="0px" y="0px"
	 viewBox="0 0 862 253.2" style="enable-background:new 0 0 862 253.2;" xml:space="preserve">
<style type="text/css">
	.st0{fill:#FFFFFF;}
	.st1{enable-background:new    ;}
	.st2{fill:#F4B400;}
	.st3{fill:#4285F4;}
	.st4{fill:#DB4437;}
	.st5{fill:#0F9D58;}
</style>
<g>
	<path class="st0" d="M797.5,202L797.5,202L797.5,202C797.5,202,797.3,202,797.5,202L797.5,202L797.5,202
		C797.6,202,797.5,202,797.5,202 M755.7,207.4L755.7,207.4c-0.7,0.2-1.4,0-2,0c-0.8-0.2-1.7-0.3-2.4-0.7c-1-0.3-1.7-0.8-2.4-1.5
		c-0.5-0.5-0.8-1.2-1.2-1.7c0.2-0.2,0.2-0.2,0.3-0.3c0.3-0.2,0.5-0.3,0.8-0.5l0,0c0.5-0.3,1.2-0.7,1.5-0.8c1.4-0.7,2-1,1.7-2.4l0,0
		c-0.3-0.7-0.8-1-1.9-0.8c-0.7,0.2-1.7,0.5-3,1.2c0.2-0.5,0.3-1,0.7-1.4c0.5-0.7,1.2-1,2.2-1l0,0c1.7,0.2,3,1,4.1,2.7
		c1,1.7,1.5,4.1,1.5,6.6C755.7,206.9,755.7,207.2,755.7,207.4 M751,217c-1.7,1.4-3.5,2-5.7,1.7c-0.3,0-0.7-0.2-0.8-0.5
		c-0.7-0.5-1.2-1.5-1.5-2.9s-0.2-2.9,0.2-4.6c0.3-1.4,0.8-2.9,1.7-4.1c0.3,0.7,0.8,1.2,1.4,1.7c0.7,0.8,1.7,1.4,2.7,1.9l0,0
		c1.2,0.5,2.4,0.7,3.4,0.8c0.8,0.2,1.5,0.2,2.4,0.2C753.9,213.8,752.7,215.9,751,217 M811.2,215c-0.2-2.9-0.2-6.4,0.2-10.8l0,0
		c0-1-0.3-1.9-0.7-2.4c-0.3-0.5-0.7-0.7-1.2-0.8c-0.5-0.2-1-0.2-1.5,0.2c-0.7,0.3-1.4,0.8-2,1.9l0,0c-1.2,1.9-1.9,3.7-2.7,5.7
		c-1,2.5-2,5.1-3.7,7.6l0,0l-0.2,0.2c0-2.4,0.3-4.9,0.7-7.6c0.5-2.9,0.8-5.9,1-9.6l0,0c0-2-0.5-3-1.2-3.2c-0.8-0.2-1.7,0.3-2.9,1.5
		l0,0c-2.9,3-4.2,6.3-6.3,10.8c-0.8,1.9-1.7,3.9-2.9,6.1c0.2-2.2,0.2-4.4,0.2-6.8c0-2.9-0.3-5.9-0.7-8.8l0,0c-0.2-0.5-0.3-1-0.5-1.4
		c-0.3-0.5-0.7-0.8-1-1c-0.5-0.2-0.8-0.2-1.4-0.2c-0.3,0-0.5,0.2-0.8,0.3l0,0c-0.5,0.3-0.8,1-0.8,1.7c0,0.5,0.2,1.2,0.5,1.9
		c-0.7-0.5-1.4-0.8-2-1.2c-2-0.8-4.2-1.2-6.4-0.8c-2.2,0.3-4.1,1.5-5.7,3.4c-0.5,0.5-0.8,1-1.2,1.7c0-0.3,0-0.5,0.2-0.8
		c0.2-1.2,0.7-2.7,1.7-4.4l0,0c0.7-1.4,0.7-2.7,0.3-3.4c-0.2-0.3-0.5-0.7-0.8-0.8s-0.7-0.2-1.2-0.2c-0.8,0.2-1.9,1-2.5,2.5l0,0
		c-0.7,1.9-1.2,3.5-1.5,5.4c-0.3,1.5-0.5,3-0.7,4.6c-0.7,0.2-1.2,0.3-1.9,0.5c-0.5,0.2-0.8,0.2-1.4,0.3c0-0.2,0-0.2,0-0.3v-0.2
		c0-0.8,0-1.5,0-2.2c-0.2-3.5-1.2-6.1-2.7-7.8s-3.7-2.5-6.3-2.7c-0.3,0-0.8,0-1.4,0h-0.2l0,0l0,0c-2.4,0.5-4.1,1.9-5.1,3.5
		s-1.2,3.7-0.8,5.6c-2.4,2.5-3.9,5.6-4.6,8.4c-0.3,1.9-0.5,3.5-0.2,5.2s1,3,2.2,4.1c0.8,0.8,2,1.5,3.4,1.7l0,0
		c3,0.7,6.1-0.3,8.6-2.4c2.5-2,4.6-5.2,5.9-9.1c0.8-0.2,1.5-0.3,2.4-0.7c0.5-0.2,1.2-0.3,1.7-0.7c0,2.2,0.3,4.2,0.7,6.3
		c0.5,2.4,1.2,4.6,2,6.6l0,0c0.5,1,1,1.5,1.5,1.7c0.3,0.2,0.8,0,1.2-0.2s0.7-0.5,0.8-0.8c0.5-0.8,0.8-2.2,0.5-3.5
		c-0.5-5.1-0.3-9.8,0.8-13.2c0.5-1.7,1.4-3,2.2-3.9c0.8-0.8,2-1,3.4-0.8c1.4,0.3,2.9,1.2,4.7,2.5c0.8,0.7,1.5,1.2,2.2,1.4
		c0.3,0.2,0.7,0.2,1.2,0.2c0,1.9,0,3.9,0,5.9c0,2.7-0.2,5.4-0.3,7.6l0,0c0,0.8,0.2,1.5,0.5,2s0.7,0.7,1.2,0.8c0.5,0.2,0.8,0,1.4,0
		c0.7-0.2,1.4-0.8,2-1.5l0,0c1.7-2.4,2.7-5.2,3.9-8.3c1.2-3.2,2.5-6.6,4.6-9.5c0,2.4-0.5,5.1-0.8,7.6c-0.5,3.2-0.8,6.1-0.7,8.6l0,0
		c0.2,1,0.3,1.9,0.8,2.2c0.2,0.3,0.5,0.5,0.8,0.5c0.3,0.2,0.7,0.2,0.8,0.2c0.7,0,1.2-0.3,1.7-0.8l0,0c1.7-1.9,3.2-4.1,4.6-6.4
		c1-1.9,1.9-3.7,2.7-5.9c-0.2,2.9-0.2,5.7,0.2,8.1c0.3,3,1,5.6,2.5,7.1l0.2,0.2c0.7,0.5,1.4,0.7,1.9,0.5c0.5,0,1-0.3,1.4-0.8v-0.2
		l0,0l0,0c0.3-0.8,0.7-1.4-0.3-2.7C812,219.7,811.5,217.7,811.2,215"/>
	<path class="st0" d="M741.5,197.6L741.5,197.6L741.5,197.6L741.5,197.6c-0.3-1-1-1.5-2.5-1.5c-1.2,0-3,0.3-5.7,1l-0.3,0.2l0,0
		c-2,0.7-4.2,1.5-6.1,2.4c-1.7,0.7-3.2,1.4-4.7,2.2c0.3-2,0.7-4.2,1-6.3c0.5-2.4,1-4.7,1.5-7.1c1.7-0.8,3.5-1.7,5.2-2.4
		c1.9-0.7,3.9-1.4,5.7-1.7l0,0c1.9-0.5,3.5-0.5,4.4-0.2c0.3,0.2,0.5,0.3,0.7,0.5s0.2,0.5,0,0.8c-0.2,0.7-1,1.7-2.4,2.7l-0.2,0.2
		c-0.5,0.5-0.7,1.2-0.5,1.5c0,0.3,0.2,0.5,0.3,0.7c0.2,0.2,0.5,0.3,0.7,0.3c0.5,0.2,1.2,0,1.9-0.5c0.5-0.3,1-0.7,1.4-1
		c0.3-0.3,0.7-0.5,0.8-0.8l0,0c1.4-1.7,2-3.2,2.2-4.4c0-1-0.2-2-0.8-2.7c-0.5-0.7-1.4-1.2-2.5-1.5c-1.9-0.5-4.2-0.5-6.9,0.3l0,0
		c-1.9,0.5-3.5,1.2-5.4,1.9c-1.7,0.7-3.2,1.4-4.9,2.2c-0.2-0.2-0.2-0.3-0.3-0.3c-0.3-0.2-0.7-0.3-1-0.3s-0.7,0.2-1,0.5
		c-0.5,0.3-1,1.2-1.4,2.4c-1.7,1-3.4,2-5.1,3.2c-1.9,1.2-3.7,2.7-5.6,4.2c-0.5,0.5-1,0.8-1.4,1.4c-0.3,0.7-0.5,1.4-0.2,2l0.2,0.2
		c0.5,0.3,1,0.5,1.7,0.3c0.5-0.2,1-0.5,1.5-1c1.5-1.2,2.9-2.4,4.4-3.4c1-0.7,2.2-1.5,3.2-2.2c-0.3,1.9-0.8,3.9-1.2,5.7
		c-0.3,2.4-0.7,4.7-1,7.3c-0.3,0.2-0.7,0.3-1,0.7c-0.5,0.3-0.8,0.5-1.4,0.8c-0.7,0.5-1.4,1-1.7,1.7s-0.5,1.4-0.2,2l0,0
		c0.5,0.7,1,0.8,1.9,0.7c0.5-0.2,1-0.5,1.7-0.8l0,0h0.2c-0.2,2-0.3,4.1-0.5,6.1c-0.2,2.4-0.3,4.9-0.3,7.4c0,0.7,0,1.4,0.3,1.9
		c0.2,0.5,0.5,0.7,0.8,1c0.3,0.2,0.8,0.3,1.2,0.3c0.3,0,0.7-0.2,1-0.5l0,0c0.8-0.8,0.8-2,0.8-3.5c0-0.7,0-1.2,0.2-1.9l0,0
		c0-2,0.2-4.2,0.3-6.6c0.2-2,0.3-4.2,0.7-6.4c2.2-1.2,4.4-2,6.4-2.9c2.2-0.8,4.4-1.5,6.6-2.2l0,0c1.5-0.5,2.9-0.7,3.9-0.8
		C740.4,200.5,741.7,200.5,741.5,197.6"/>
	<path class="st0" d="M668.7,204.2L668.7,204.2C668.5,204.2,668.5,204.2,668.7,204.2 M673.6,199.1c1.7-1,3.4-1.5,5.2-1.5
		c0.7,0,1,0,1,0.2c0,0,0,0.3-0.2,0.7c-1,2.2-2.4,3.9-4.2,4.7c-1.7,1-3.9,1.4-6.6,1C670.4,201.8,672.1,200.1,673.6,199.1
		 M713.5,203.5c-0.2-0.7-0.5-1.2-1.4-1.9c-1.2-1-2.5-1.9-3.9-2.5c-2-0.8-4.2-1-6.3-0.7c-2,0.5-4.1,1.5-5.6,3.4
		c-0.3,0.5-0.8,1-1.2,1.5c0-0.2,0-0.3,0.2-0.5c0.2-1.4,0.7-2.9,1.7-4.6l0,0c0.7-1.4,0.7-2.7,0.3-3.4c-0.2-0.3-0.5-0.7-0.8-0.8
		s-0.7-0.2-1.2-0.2c-0.8,0.2-1.9,1-2.5,2.5l0,0c-0.8,2.2-1.4,4.4-1.7,6.4s-0.5,3.9-0.7,5.7c-1.5,2-3.2,3.9-5.2,5.4s-4.4,2.9-7.1,3.5
		c-2,0.5-4.1,0.5-5.7,0.2c-1.4-0.3-2.4-0.8-3.4-1.7c-0.8-0.8-1.5-1.9-1.9-3.2c-0.3-1.2-0.3-2.7,0-4.2c3.5,0.2,6.6-0.3,9.3-1.9
		c2.9-1.5,5.2-4.1,7.1-7.4l0,0c0.5-1.2,0.7-2.2,0.7-3c0-1-0.3-1.7-1-2.4c-0.5-0.5-1.4-0.8-2.4-1c-1.2-0.2-2.7,0.2-4.4,0.7
		c-2.4,0.8-4.6,2.2-6.4,4.1c-1.9,1.7-3.4,3.9-4.9,6.1c-0.2,0-0.3,0-0.3,0.2c-0.5,0.2-0.8,0.5-1,1c-0.2,0.3-0.3,0.8-0.3,1.5
		c0,0.3,0,0.7,0.2,1.2c-0.7,3.4-0.7,6.1,0,8.3c0.5,1.9,1.4,3.4,2.5,4.4s2.7,1.7,4.2,2c2.5,0.5,5.6,0.3,8.4-0.5
		c2.9-0.8,5.2-2,7.4-3.5c1.7-1.2,3.2-2.5,4.6-4.2c0.2,1.4,0.3,2.5,0.7,3.9c0.5,1.7,1,3.4,1.7,5.1l0,0c0.5,1,1,1.5,1.5,1.7
		c0.3,0.2,0.8,0,1.2-0.2c0.3-0.2,0.7-0.5,0.8-0.8c0.5-0.8,0.8-2.2,0.5-3.5c-0.5-5.1-0.3-9.8,0.8-13.2c0.5-1.7,1.4-3,2.2-3.9
		s2-1,3.4-0.8c1.4,0.3,2.9,1.2,4.7,2.5l0,0c0.8,0.8,1.7,1.2,2.4,1.4c0.8,0.2,1.5,0,2.2-0.5l0.2-0.2
		C713.5,204.9,713.7,204.2,713.5,203.5"/>
	<path class="st0" d="M655.9,211.8c-1,2.4-3.4,4.1-7.8,5.1c-0.5,0.2-1,0.2-1.5,0.2c-0.3,0-0.7,0-0.8,0c0-2.4,0-4.9-0.2-7.1
		c-0.2-2.2-0.3-4.2-0.7-6.1c1.4-3.2,2.5-5.2,3.7-6.3c0.7-0.7,1.4-1,2-0.8c0.7,0,1.2,0.3,1.9,1c1,1,2,3,2.9,5.4l0,0
		C656.5,206.6,656.9,209.4,655.9,211.8 M642.2,216.4L642.2,216.4c-0.3,0-0.3-0.2-0.5-0.2c0.2-0.8,0.3-1.7,0.5-2.7
		C642.2,214.5,642.2,215.3,642.2,216.4 M641.8,223.8c-0.2,1.5-0.2,3-0.3,4.6l0,0c-0.3,4.2-0.5,6.6-0.8,7.9c-0.2,0.8,0,1,0,1
		s0,0-0.2-0.7c-0.2-1.2-0.2-3.4-0.3-7.9c0-0.3,0-0.7,0-1c0-1.5,0.2-3.9,0.7-7.9c0.2,0,0.3,0.2,0.3,0.2c0.2,0,0.5,0.2,0.7,0.2
		C642,221.3,641.8,222.4,641.8,223.8 M627.3,208.9L627.3,208.9L627.3,208.9c0-0.3,0-0.8,0-1.2l0,0c0-0.5,0.2-1,0.2-1.4
		C627.7,207.2,627.7,208.1,627.3,208.9 M627,200.6c-0.5,0.2-1,0.3-1.5,0.8c-0.3,0.3-0.8,1-1.2,1.7c-0.3,0.3-0.7,0.5-1,0.7
		c-0.3,0.3-0.8,0.5-1.2,0.8l0,0c-0.7,0.3-1,0.8-1,1.4c0,0.3,0,0.5,0.2,0.8s0.3,0.5,0.5,0.7c0.3,0.2,1,0.2,1.7,0v0.2c0,0.5,0,1,0,1.7
		l0,0c0,0.8,0,1.9,0.2,2.7s0.2,1.5,0.5,2.4c-1.4,1.2-2.7,2-4.2,2.5c-1.7,0.5-3.4,0.3-5.1-0.2c-1.9-1-2.9-2.5-2.9-4.6
		c0-2.2,1.2-5.1,3.9-9c1.9-2.5,4.2-4.7,6.6-6.1c1.2-0.7,2.4-1.2,3.2-1.5c0.8-0.2,1.7,0,2.2,0.3c0.2,0.2,0.3,0.3,0.5,0.5
		c0.3,0.5,0.3,1.2,0.2,1.7C628.2,199.1,627.7,200,627,200.6 M659.9,201.8L659.9,201.8c-1.2-4.4-2.9-7.6-4.9-9
		c-2.2-1.5-4.9-1.2-7.9,1.2l0,0c-0.8,0.8-1.7,1.7-2.4,2.7c-0.5,0.7-0.8,1.2-1.2,1.9c-0.2-0.3-0.3-0.8-0.7-1.2
		c-0.5-1.2-1.4-1.7-2.2-1.9c-0.5,0-1.2,0.2-1.5,0.5c-0.5,0.3-0.8,0.8-0.8,1.4c-0.2,0.8,0.2,1.7,1.2,2.4l0,0c0.3,0.2,0.7,0.7,1,1.2
		s0.5,1.4,0.8,2.2c-0.5,1.4-1,2.5-1.4,4.1s-0.8,2.9-1.2,4.6c-1.2,2.4-2.7,4.6-4.1,6.1c-0.7,0.7-1.5,1.2-2.2,1.4s-1.2,0-1.9-0.5
		c-0.5-0.3-0.8-1-1.4-2c-0.2-0.5-0.5-1-0.7-1.4c-0.2-0.3-0.3-0.7-0.3-1c0.8-1.4,1.7-2.7,2.2-4.1c0.5-1.5,0.8-2.9,1-4.2
		c0-1-0.2-1.9-0.3-2.7c-0.2-0.7-0.5-1.2-0.8-1.7c1.4-1.9,2.2-3.7,2.4-5.2c0.2-1.2,0-2.2-0.5-3s-1.2-1.5-2.2-2
		c-1-0.3-2.5-0.5-4.2-0.2l0,0c-2.5,0.7-5.4,2.4-8.1,4.7c-2.5,2.4-5.1,5.2-7.1,8.8c-0.5,0.8-1,1.9-1.4,2.7c-1,2.5-1.4,5.1-1,7.3
		c0.5,2.2,1.7,4.1,3.9,5.4c0.3,0.2,0.8,0.5,1.4,0.7l0,0c2.4,0.7,4.6,0.5,6.6-0.2s3.7-1.7,5.4-3c0.5,1.2,1.2,2.2,2,3
		c0.8,1,1.9,1.7,2.9,2c1.2,0.3,2.4,0.3,3.7-0.2c1-0.3,1.9-1,2.9-1.9l0,0c0.2-0.2,0.5-0.5,0.7-0.8c-0.3,5.1-0.7,10.5-0.5,14.7
		c0.2,4.7,1.2,8.1,3.4,8.1c1,0,2-1,2.9-2.7c0.7-1.5,1.2-3.5,1.5-6.1c0.3-2.2,0.5-4.6,0.7-7.1c0.2-2,0.3-3.9,0.3-6.1
		c0.5,0,0.8,0,1.4,0c0.7,0,1.2,0,1.9-0.2l0,0c0.5-0.2,1-0.2,1.5-0.3c3.5-1,6.6-2.7,8.4-5.4c1.9-2.7,2.5-6.4,1.5-11.2
		C660.3,203,660.1,202.5,659.9,201.8"/>
	<path class="st0" d="M834.5,214.7c-0.3-1.2-1-2.2-2-3c-1.4-1.4-3.2-2.9-5.4-4.4c-2.2-1.7-4.6-3.4-6.9-5.2c-1.2-0.8-1.9-1.7-2.4-2.5
		c-0.2-0.5-0.3-0.8-0.2-1.2c0-0.3,0.3-0.7,0.7-0.8c0.5-0.3,1.5-0.7,2.9-0.7c1.9-0.2,3,0.2,3.7,0.7c0.3,0.2,0.5,0.5,0.7,0.8
		s0,0.7,0,1c-0.2,0.5-0.7,1.2-1.2,1.5c-0.7,0.3-1,0.7-1.4,1.2c-0.3,0.5-0.2,1.2,0.3,1.7l0.3,0.2c0.5,0.2,0.8,0.2,1.4,0.2
		c0.3,0,0.8-0.2,1.2-0.3l0,0c1.7-1,2.7-2.4,3.4-3.7c0.3-1,0.5-2,0.2-3c-0.2-1-0.8-1.9-1.7-2.5c-1.2-1-2.9-1.7-5.2-1.7
		c-2.4,0-4.4,0.7-5.9,2c-0.8,0.7-1.5,1.5-2,2.4c-0.5,0.8-0.8,1.9-0.8,3c0,1.5,0.5,3,1.5,4.6l0,0c2.2,2.2,4.2,3.7,6.6,5.4
		c1.9,1.4,4.1,2.9,6.6,5.1l0,0c1,0.7,1.7,1.5,1.9,2.2c0.2,0.5,0.2,1,0,1.5s-0.7,0.8-1.2,1.4c-1.2,0.7-2.9,1.2-5.2,1.2
		c-1.4-0.2-2.7-0.5-3.9-0.8c-1.2-0.5-2.2-1.2-3-2h-0.2c-0.5-0.3-0.8-0.7-1.5-0.7c-0.7-0.2-1.4,0-1.9,0.7l0,0l0,0l0,0
		c-0.5,0.7-0.7,1.4-0.5,1.9c0.2,0.7,0.5,1.2,0.8,1.5l0,0l0,0c1.2,1.2,2.7,2,4.4,2.5c1.5,0.5,3.4,0.8,5.2,1h0.2c3-0.2,5.6-1,7.4-2.2
		c1.5-1,2.5-2.2,3.2-3.5C834.8,217.5,835,216.2,834.5,214.7"/>
	<path class="st0" d="M533.2,194.7L533.2,194.7L533.2,194.7L533.2,194.7z M558.4,182.2c-0.5-0.7-1.4-0.7-2.7,0.2l0,0
		c-0.7,0.5-1,1-1.4,1.5c-0.2,0.7-0.3,1.4-0.3,2.2c0,4.9-0.3,9.6-1,14.4c-0.5,4.6-1.4,9.1-2.4,13.5c-0.2,0.5-0.2,0.8-0.3,1.2l0,0
		c-2.5-4.1-4.9-8.4-7.6-13c-2.7-4.9-5.4-10-8.3-15.5l0,0c-0.2-0.3-0.5-0.5-0.8-0.7c-0.5-0.2-1-0.2-1.4,0.2c-0.3,0.2-0.7,0.5-1,1
		c-0.7,0.8-1.2,2.2-1.4,3.5c-0.5,3-1,6.3-1.7,9.3c-1.2,6.3-2.4,12.5-2.4,18.9c0,1.9,0.2,2.9,0.7,3.4c0.7,0.7,1.5,0.5,2.4,0h0.2
		c0.7-0.3,1-1,1.2-1.9c0.2-0.7,0.2-1.7,0.2-2.7c-0.2-4.9,0.7-9.3,1.5-13.7c0.5-2.7,1-5.6,1.4-8.4l14.2,24.7l0,0
		c0.5,0.7,1,1.2,1.5,1.5s1,0.3,1.5,0.3s1-0.2,1.4-0.5c0.5-0.3,1.2-1,1.5-1.9v-0.2c1.5-4.9,2.7-10.1,3.5-15.9
		c0.8-5.7,1.5-11.8,1.7-18.6C558.9,183.8,558.7,182.7,558.4,182.2"/>
	<path class="st0" d="M600.5,202.8c-2.5,1.2-5.4,1.9-8.6,2c0.2-2.9,0.3-5.9,0.7-8.4c0.2-2.7,0.5-5.1,0.8-7.1c2.5-0.5,5.1-0.8,7.4-1
		c2.4-0.2,4.4-0.2,6.3,0.2c1.5,0.2,2.7,0.7,3.2,1.4c0.3,0.3,0.5,0.7,0.7,1.2s0.2,0.8,0.2,1.4c-0.2,1.5-1.2,3.2-2.9,4.9
		C605.7,199.5,603.2,201.5,600.5,202.8 M575.6,207.4L575.6,207.4c-0.7,0.2-1.4,0-2,0c-0.8-0.2-1.7-0.3-2.4-0.7l0,0
		c-1-0.3-1.7-0.8-2.4-1.5c-0.5-0.5-0.8-1.2-1.2-1.7c0.2-0.2,0.2-0.2,0.3-0.3c0.3-0.2,0.5-0.3,0.8-0.5l0,0c0.5-0.3,1.2-0.7,1.5-0.8
		c1.4-0.7,2-1,1.7-2.4l0,0c-0.3-0.7-0.8-1-1.9-0.8c-0.7,0.2-1.7,0.5-3,1.2c0.2-0.5,0.3-1,0.7-1.4c0.5-0.7,1.2-1,2.2-1l0,0
		c1.7,0.2,3,1,4.1,2.7c1,1.7,1.5,4.1,1.5,6.6C575.6,207.1,575.6,207.2,575.6,207.4 M570.9,217c-1.7,1.4-3.5,2-5.7,1.7
		c-0.3,0-0.7-0.2-0.8-0.5c-0.7-0.5-1.2-1.5-1.5-2.9s-0.2-2.9,0.2-4.6c0.3-1.4,0.8-2.9,1.7-4.1c0.3,0.7,0.8,1.2,1.4,1.7
		c0.7,0.8,1.7,1.4,2.7,1.9l0,0c1.2,0.5,2.4,0.7,3.4,0.8c0.8,0.2,1.5,0.2,2.4,0.2C573.8,213.8,572.6,215.9,570.9,217 M610.6,200.3
		c2.9-3,4.2-6.3,4.4-8.8c0.2-1.2,0-2.4-0.3-3.2c-0.3-1-1-1.9-1.7-2.5c-1.2-1.2-2.9-1.9-4.7-1.9c-2.4-0.2-4.7-0.2-7.3,0
		c-2.2,0.2-4.6,0.5-6.8,0.8c0.3-1.4,0.2-2.2-0.2-2.7c-0.3-0.5-0.7-0.7-1.2-0.7c-0.3,0-0.8,0.2-1.2,0.3c-1,0.7-2,2-2.2,4.1l0,0
		c-1,0.3-2,0.5-3,0.8c-1.2,0.3-2.4,0.7-3.5,1.2c-1.4,0.5-2,1.4-2.2,2c-0.2,0.3-0.2,0.7,0,1s0.3,0.7,0.7,0.8c0.7,0.3,1.7,0.5,3,0
		c0.8-0.3,1.9-0.5,2.7-0.8c0.7-0.2,1.2-0.3,1.7-0.5c-0.3,2.4-0.5,4.7-0.7,7.1c-0.2,2.4-0.3,4.9-0.5,7.4c-0.2,0-0.5,0-0.7,0.2
		c-0.3,0.2-0.8,0.2-1,0.3c-0.2,0-0.5,0.2-0.7,0.2c-0.3,0.2-0.5,0.2-0.8,0.3c-0.8,0.3-1.9,0.7-2.7,0.8c-0.5,0.2-1.2,0.3-1.7,0.3
		c0-0.2,0-0.2,0-0.3v-0.2c0-0.8,0-1.5,0-2.2c-0.2-3.5-1.2-6.1-2.7-7.8s-3.7-2.5-6.3-2.7c-0.3,0-0.8,0-1.4,0h-0.2l0,0l0,0
		c-2.4,0.5-4.1,1.9-5.1,3.5c-1,1.7-1.2,3.7-0.8,5.6c-2.4,2.5-3.9,5.6-4.6,8.4c-0.3,1.9-0.5,3.5-0.2,5.2l0,0c0.3,1.7,1,3,2,4.1
		c0.8,0.8,2,1.5,3.4,1.7l0,0c3,0.7,6.1-0.3,8.6-2.4c2.5-2,4.6-5.2,5.9-9.1c1.2-0.3,2.4-0.7,3.5-1c1.2-0.5,2.2-1,3.4-1.7
		c0.2,0.2,0.3,0.2,0.7,0.3c0.3,0.2,0.7,0.2,1.2,0.3c0,2.2-0.2,4.4-0.2,6.6c0,2.4,0,4.9,0,7.3l0,0c0,0.7,0.2,1.2,0.3,1.7
		c0.2,0.5,0.5,0.7,0.8,0.8s0.7,0.2,1.2,0c0.3-0.2,0.7-0.3,1-0.7c1-1,1-2,1-3.4c0-0.3,0-0.7,0-0.8l0,0c0-1.7-0.2-3.5,0-5.4
		c0-1.9,0-3.7,0.2-5.7c3.4-0.2,6.9-1.2,10-2.5C605.2,204.9,608.4,202.7,610.6,200.3"/>
	<g>
		<g class="st1">
			<path class="st0" d="M326.4,196.6H322v20.1h-6.4v-20.1h-2.9v-5.2h2.9V190c0-3,0.8-5.4,2.7-6.8c1.7-1.5,4.4-2.2,7.9-2v5.4
				c-1.5,0-2.7,0.2-3.2,0.8c-0.7,0.5-0.8,1.5-0.8,3v1h4.4v5.1h-0.2V196.6z"/>
			<path class="st0" d="M335.2,215.3c-2-1-3.5-2.5-4.6-4.6c-1.2-2-1.7-4.2-1.7-6.8s0.5-4.9,1.7-6.8c1.2-2,2.7-3.5,4.7-4.6
				c2-1,4.2-1.7,6.6-1.7s4.6,0.5,6.6,1.7s3.5,2.5,4.7,4.6c1.2,2,1.7,4.2,1.7,6.8s-0.5,4.9-1.7,6.8c-1.2,2-2.7,3.5-4.7,4.6
				c-2,1-4.2,1.7-6.8,1.7C339.2,217,337,216.4,335.2,215.3z M345,210.6c1-0.5,1.9-1.4,2.4-2.5c0.7-1.2,0.8-2.5,0.8-4.1
				c0-2.4-0.7-4.2-1.9-5.6c-1.2-1.4-2.9-1.9-4.6-1.9c-1.9,0-3.4,0.7-4.6,1.9c-1.2,1.4-1.9,3.2-1.9,5.6c0,2.4,0.7,4.2,1.9,5.6
				c1.2,1.4,2.7,1.9,4.6,1.9C342.9,211.5,344,211.1,345,210.6z"/>
			<path class="st0" d="M369.1,192c1.4-0.7,2.9-1.2,4.6-1.2v6.8H372c-2,0-3.5,0.5-4.6,1.4c-1,1-1.5,2.5-1.5,4.9v12.7h-6.4v-25.3h6.4
				v3.9C366.8,193.9,368,192.9,369.1,192z"/>
			<path class="st0" d="M417,193.7c1.9,1.9,2.9,4.6,2.9,7.9v14.9h-6.4v-14c0-2-0.5-3.5-1.5-4.6c-1-1-2.4-1.5-4.1-1.5s-3,0.5-4.1,1.5
				c-1,1-1.5,2.5-1.5,4.6v14h-6.4v-14c0-2-0.5-3.5-1.5-4.6c-1-1-2.4-1.5-4.1-1.5s-3.2,0.5-4.2,1.5s-1.5,2.5-1.5,4.6v14h-6.4v-25.3
				h6.4v3c0.8-1,1.9-1.9,3.2-2.5c1.4-0.7,2.7-0.8,4.2-0.8c2,0,3.7,0.3,5.2,1.2c1.5,0.8,2.7,2,3.5,3.5c0.8-1.5,2-2.7,3.5-3.5
				s3.2-1.4,5.1-1.4C412.6,190.8,414.9,191.9,417,193.7z"/>
			<path class="st0" d="M449.1,205.9h-18.4c0.2,1.9,0.8,3.2,1.9,4.2c1.2,1,2.5,1.5,4.2,1.5c2.4,0,4.1-1,5.1-3h6.9
				c-0.7,2.4-2.2,4.4-4.2,5.9s-4.6,2.4-7.6,2.4c-2.4,0-4.6-0.5-6.6-1.7c-1.9-1-3.4-2.5-4.6-4.6c-1-2-1.7-4.2-1.7-6.8
				s0.5-4.9,1.5-6.9s2.5-3.5,4.4-4.6c1.9-1,4.1-1.5,6.6-1.5c2.4,0,4.6,0.5,6.4,1.5c1.9,1,3.4,2.5,4.4,4.4s1.5,4.1,1.5,6.6
				C449.2,204.4,449.2,205,449.1,205.9z M442.6,201.5c0-1.7-0.7-3-1.9-3.9c-1.2-1-2.5-1.5-4.2-1.5c-1.5,0-2.9,0.5-4.1,1.5
				c-1,1-1.7,2.4-2,4.1h12.2V201.5z"/>
			<path class="st0" d="M463.6,192c1.4-0.7,2.9-1.2,4.6-1.2v6.8h-1.7c-2,0-3.5,0.5-4.6,1.4c-1,1-1.5,2.5-1.5,4.9v12.7H454v-25.3h6.4
				v3.9C461.2,193.9,462.2,192.9,463.6,192z"/>
			<path class="st0" d="M478.8,182.7v33.8h-6.4v-33.8H478.8z"/>
			<path class="st0" d="M509.2,191.4l-15.7,37.2h-6.8l5.4-12.7L482,191.2h7.1l6.6,17.6l6.6-17.6h6.9V191.4z"/>
		</g>
	</g>
</g>
<path class="st0" d="M788.2,135.3c-4.8,0-8.7-1.8-11.8-5.3c-3-3.5-4.6-8.7-4.6-15.5c0-6.7,1.6-11.8,4.7-15.3
	c3.2-3.5,7.1-5.3,11.8-5.3s8.6,1.8,11.9,5.3c3.2,3.5,4.8,8.6,4.8,15.3c0,6.7-1.6,11.8-4.8,15.4C797,133.5,793,135.3,788.2,135.3
	 M788.2,165.1c9.8,0,18.7-2,26.5-6.1s14-10,18.5-17.7s6.8-16.6,6.8-26.8s-2.3-19.1-6.8-26.7s-10.7-13.5-18.4-17.6
	c-7.8-4.1-16.6-6.1-26.4-6.1c-9.8,0-18.6,2-26.4,6.1c-7.8,4.1-13.9,10-18.4,17.6s-6.8,16.5-6.8,26.7c0,10.3,2.2,19.3,6.7,26.9
	c4.4,7.6,10.6,13.5,18.3,17.6C769.6,163.1,778.4,165.1,788.2,165.1"/>
<path class="st0" d="M716.5,134.6c-2.9,0-5-0.6-6.2-1.8s-1.8-3.1-1.8-5.8V94h17.9V65.4h-17.9V41.5h-34.6v23.9h-12.1V94h12.1v32.5
	c0,24.9,12.6,37.4,37.8,37.4h14.9v-29.3L716.5,134.6L716.5,134.6z"/>
<path class="st0" d="M654.8,134.6c-2.9,0-5-0.6-6.2-1.8s-1.8-3.1-1.8-5.8V94h17.9V65.4h-17.9V41.5h-34.6v23.9H600V94h12.1v32.5
	c0,24.9,12.6,37.4,37.8,37.4h14.9v-29.3L654.8,134.6L654.8,134.6z"/>
<rect x="552.6" y="65.4" class="st0" width="34.4" height="98.5"/>
<path class="st0" d="M508.6,82.7V65.4h-34.4v98.5h34.4v-43c0-7.3,1.8-12.4,5.4-15.3c3.6-2.9,9.2-4.4,16.7-4.4h9.7V64.5
	c-6.3,0-12.2,1.6-17.7,4.9C517.1,72.7,512.4,77.1,508.6,82.7"/>
<path class="st0" d="M394.6,104.9c0.8-4.4,2.6-7.8,5.3-10.1c2.7-2.3,6.1-3.4,10.4-3.4c4.2,0,7.7,1.2,10.5,3.6s4.2,5.7,4.2,9.9H394.6
	z M460.1,113.5c0-10.1-2.1-18.8-6.3-26.3c-4.2-7.4-10.1-13.1-17.6-17.1s-16.1-6-25.8-6c-9.8,0-18.5,2-26.1,6.1s-13.4,9.9-17.6,17.5
	s-6.3,16.5-6.3,26.8s2.1,19.3,6.4,26.9c4.3,7.6,10.2,13.5,17.7,17.6c7.6,4.1,16.2,6.1,25.9,6.1c8.1,0,15.5-1.5,22.1-4.6
	c6.7-3,12.2-7.2,16.6-12.6c4.4-5.3,7.3-11.4,8.9-18.2h-36.7c-2.5,5.2-6.6,7.7-12.3,7.7c-4.1,0-7.5-1.3-10.1-4s-4.1-6.6-4.5-12h65.2
	C459.9,118.9,460.1,116.2,460.1,113.5"/>
<path class="st0" d="M307.3,64.5c-6.9,0-13.2,1.7-19,5c-5.7,3.3-10.4,7.7-13.9,13.1c-3.3-5.7-7.8-10.2-13.4-13.3
	c-5.7-3.2-12.1-4.7-19.4-4.7c-6.3,0-11.9,1.3-16.8,3.8c-4.9,2.5-8.8,5.9-11.9,10.1v-13h-34.4V164H213v-52.9c0-5.3,1.5-9.4,4.4-12.3
	s7-4.4,12.1-4.4c5,0,9,1.5,11.9,4.4s4.3,7,4.3,12.3V164h34.4v-52.9c0-5.3,1.5-9.4,4.4-12.3s6.9-4.4,11.9-4.4s9,1.5,11.9,4.4
	s4.4,7,4.4,12.3V164h34.4v-57.4c0-13-3.5-23.2-10.6-30.7C329.5,68.2,319.7,64.5,307.3,64.5"/>
<path class="st2" d="M569.8,54.9c9.5,0,17.2-7.7,17.2-17.2s-7.7-17.2-17.2-17.2s-17.2,7.7-17.2,17.2S560.3,54.9,569.8,54.9"/>
<path class="st3" d="M147.7,62.5V157c0,3.9-3.4,6.9-7.3,6.4c-15.9-2.2-28.6-9.8-37.6-23.8c-12.4-19.2-12.5-39.2-0.7-58.7
	c10-16.5,26.6-23.6,38.5-24.9C144.4,55.6,147.7,58.6,147.7,62.5"/>
<path class="st4" d="M23.4,72.6v94.5c0,3.9,3.4,6.9,7.3,6.4c15.9-2.2,28.6-9.8,37.6-23.8C80.7,130.5,80.8,110.5,69,91
	C59,74.5,42.4,67.4,30.5,66.1C26.7,65.7,23.4,68.7,23.4,72.6"/>
<path class="st5" d="M89.3,172.1c-7.6,0.1-13.7-6.2-13.6-13.9c0-7.5,6.1-13.6,13.8-13.5c7.6,0,13.7,6.2,13.6,13.9
	C103.1,166.1,96.9,172.1,89.3,172.1"/>
</svg>
