<svg width="19" height="19" viewBox="0 0 19 19" fill="none" xmlns="http://www.w3.org/2000/svg">
<g id="Group">
<path id="Vector" d="M11.4385 7.39557C11.3318 7.09295 11.1337 6.83091 10.8717 6.64561C10.6097 6.4603 10.2967 6.36085 9.97574 6.36097H8.77492C8.43234 6.35918 8.10126 6.48448 7.8457 6.71265C7.59015 6.94081 7.42828 7.25563 7.39139 7.59623C7.3545 7.93683 7.44521 8.27901 7.64599 8.5566C7.84677 8.83419 8.14335 9.02746 8.47837 9.09906L10.3069 9.498C10.6807 9.57986 11.0112 9.79698 11.2347 10.1077C11.4582 10.4184 11.5591 10.8007 11.5178 11.1812C11.4766 11.5617 11.2962 11.9135 11.0113 12.1691C10.7264 12.4247 10.3572 12.566 9.97441 12.5659H8.94115C8.2656 12.5659 7.69112 12.135 7.47835 11.5326M9.45845 6.36097V4.80908M9.45845 14.1178V12.5672M2.99023 18.2881V14.9635H6.31477" stroke="black" strokeWidth="1.2" stroke-linecap="round" stroke-linejoin="round"/>
<path id="Vector_2" d="M18.1379 8.05654C18.4909 9.93851 18.2091 11.8844 17.3366 13.5889C16.4641 15.2933 15.0503 16.6598 13.3172 17.4739C11.584 18.288 9.62966 18.5035 7.76077 18.0867C5.89189 17.6699 4.21431 16.6444 2.99132 15.171M1.14819 11.2375C0.795161 9.35549 1.07702 7.40957 1.94952 5.70511C2.82203 4.00066 4.2358 2.63416 5.96892 1.82009C7.70205 1.00602 9.65643 0.790471 11.5253 1.20727C13.3942 1.62407 15.0718 2.64962 16.2948 4.12296" stroke="black" strokeWidth="1.2" stroke-linecap="round" stroke-linejoin="round"/>
<path id="Vector_3" d="M16.2952 1.00586V4.33039H12.9707" stroke="black" strokeWidth="1.2" stroke-linecap="round" stroke-linejoin="round"/>
</g>
</svg>
