<svg width="17" height="18" viewBox="0 0 17 18" fill="none" xmlns="http://www.w3.org/2000/svg">
<path d="M10.0417 4.95835L1.93128 13.5414L1 17L4.12392 16.167L12.2343 7.58397M10.0417 4.95835L12.9499 1.88063L12.9516 1.8788C13.352 1.45513 13.5525 1.24293 13.7478 1.13139C13.9198 1.03315 14.0888 0.988091 14.2305 1.00269C14.3912 1.01926 14.4995 1.14894 14.7156 1.40778L15.6693 2.54979C15.8864 2.80974 15.995 2.93977 15.9998 3.12175C16.004 3.28182 15.9536 3.46888 15.8559 3.65613C15.7448 3.86885 15.5443 4.08107 15.1434 4.50534L15.1425 4.50625L12.2343 7.58397M10.0417 4.95835L12.2343 7.58397" stroke="#0B0D23" stroke-width="1.5" stroke-linecap="round" stroke-linejoin="round"/>
</svg>
