<svg width="12" height="12" viewBox="0 0 12 12" fill="none" xmlns="http://www.w3.org/2000/svg">
<g id="Symbol">
<path fillRule="evenodd" clipRule="evenodd" d="M2.91892 6.00001C2.91892 4.29836 4.29836 2.91892 6.00001 2.91892C7.70164 2.91892 9.08108 4.29836 9.08108 6.00001C9.08108 7.70164 7.70164 9.08108 6.00001 9.08108C4.29836 9.08108 2.91892 7.70164 2.91892 6.00001ZM6.00001 8C4.89542 8 4 7.10458 4 6.00001C4 4.89543 4.89542 4 6.00001 4C7.10457 4 8 4.89543 8 6.00001C8 7.10458 7.10457 8 6.00001 8Z" fill="url(#paint0_linear_10_679)"/>
<path fillRule="evenodd" clipRule="evenodd" d="M2.91892 6.00001C2.91892 4.29836 4.29836 2.91892 6.00001 2.91892C7.70164 2.91892 9.08108 4.29836 9.08108 6.00001C9.08108 7.70164 7.70164 9.08108 6.00001 9.08108C4.29836 9.08108 2.91892 7.70164 2.91892 6.00001ZM6.00001 8C4.89542 8 4 7.10458 4 6.00001C4 4.89543 4.89542 4 6.00001 4C7.10457 4 8 4.89543 8 6.00001C8 7.10458 7.10457 8 6.00001 8Z" fill="url(#paint1_radial_10_679)"/>
<path d="M9.20281 3.51718C9.60046 3.51718 9.92282 3.19484 9.92282 2.79719C9.92282 2.39954 9.60046 2.07718 9.20281 2.07718C8.80518 2.07718 8.48282 2.39954 8.48282 2.79719C8.48282 3.19484 8.80518 3.51718 9.20281 3.51718Z" fill="url(#paint2_linear_10_679)"/>
<path d="M9.20281 3.51718C9.60046 3.51718 9.92282 3.19484 9.92282 2.79719C9.92282 2.39954 9.60046 2.07718 9.20281 2.07718C8.80518 2.07718 8.48282 2.39954 8.48282 2.79719C8.48282 3.19484 8.80518 3.51718 9.20281 3.51718Z" fill="url(#paint3_radial_10_679)"/>
<path fillRule="evenodd" clipRule="evenodd" d="M6.00001 0C4.3705 0 4.16617 0.00690694 3.52621 0.0361066C2.88758 0.0652349 2.45142 0.166672 2.06977 0.315004C1.67522 0.468314 1.34061 0.673474 1.00703 1.00703C0.673474 1.34061 0.468314 1.67522 0.315004 2.06977C0.166672 2.45142 0.0652349 2.88758 0.0361066 3.52621C0.00690694 4.16617 0 4.3705 0 6.00001C0 7.6295 0.00690694 7.83383 0.0361066 8.47379C0.0652349 9.11242 0.166672 9.54858 0.315004 9.93023C0.468314 10.3248 0.673474 10.6594 1.00703 10.993C1.34061 11.3265 1.67522 11.5317 2.06977 11.685C2.45142 11.8333 2.88758 11.9348 3.52621 11.9639C4.16617 11.9931 4.3705 12 6.00001 12C7.6295 12 7.83383 11.9931 8.47379 11.9639C9.11242 11.9348 9.54858 11.8333 9.93023 11.685C10.3248 11.5317 10.6594 11.3265 10.993 10.993C11.3265 10.6594 11.5317 10.3248 11.685 9.93023C11.8333 9.54858 11.9348 9.11242 11.9639 8.47379C11.9931 7.83383 12 7.6295 12 6.00001C12 4.3705 11.9931 4.16617 11.9639 3.52621C11.9348 2.88758 11.8333 2.45142 11.685 2.06977C11.5317 1.67522 11.3265 1.34061 10.993 1.00703C10.6594 0.673474 10.3248 0.468314 9.93023 0.315004C9.54858 0.166672 9.11242 0.0652349 8.47379 0.0361066C7.83383 0.00690694 7.6295 0 6.00001 0ZM6.00001 1.08108C7.60207 1.08108 7.79184 1.0872 8.42452 1.11607C9.00951 1.14274 9.32721 1.24049 9.53863 1.32266C9.8187 1.4315 10.0186 1.56152 10.2285 1.77149C10.4385 1.98143 10.5685 2.18131 10.6773 2.46137C10.7595 2.6728 10.8573 2.99049 10.8839 3.57549C10.9128 4.20816 10.9189 4.39794 10.9189 6.00001C10.9189 7.60207 10.9128 7.79184 10.8839 8.42451C10.8573 9.00951 10.7595 9.3272 10.6773 9.53863C10.5685 9.81869 10.4385 10.0186 10.2285 10.2285C10.0186 10.4385 9.8187 10.5685 9.53863 10.6773C9.32721 10.7595 9.00951 10.8573 8.42452 10.8839C7.79194 10.9128 7.60219 10.9189 6.00001 10.9189C4.39782 10.9189 4.20809 10.9128 3.57549 10.8839C2.99049 10.8573 2.6728 10.7595 2.46137 10.6773C2.18131 10.5685 1.98144 10.4385 1.77149 10.2285C1.56154 10.0186 1.4315 9.81869 1.32266 9.53863C1.24049 9.3272 1.14274 9.00951 1.11607 8.42451C1.0872 7.79184 1.08108 7.60207 1.08108 6.00001C1.08108 4.39794 1.0872 4.20816 1.11607 3.57549C1.14274 2.99049 1.24049 2.6728 1.32266 2.46137C1.4315 2.18131 1.56152 1.98143 1.77149 1.77149C1.98144 1.56152 2.18131 1.4315 2.46137 1.32266C2.6728 1.24049 2.99049 1.14274 3.57549 1.11607C4.20816 1.0872 4.39794 1.08108 6.00001 1.08108Z" fill="url(#paint4_linear_10_679)"/>
<path fillRule="evenodd" clipRule="evenodd" d="M6.00001 0C4.3705 0 4.16617 0.00690694 3.52621 0.0361066C2.88758 0.0652349 2.45142 0.166672 2.06977 0.315004C1.67522 0.468314 1.34061 0.673474 1.00703 1.00703C0.673474 1.34061 0.468314 1.67522 0.315004 2.06977C0.166672 2.45142 0.0652349 2.88758 0.0361066 3.52621C0.00690694 4.16617 0 4.3705 0 6.00001C0 7.6295 0.00690694 7.83383 0.0361066 8.47379C0.0652349 9.11242 0.166672 9.54858 0.315004 9.93023C0.468314 10.3248 0.673474 10.6594 1.00703 10.993C1.34061 11.3265 1.67522 11.5317 2.06977 11.685C2.45142 11.8333 2.88758 11.9348 3.52621 11.9639C4.16617 11.9931 4.3705 12 6.00001 12C7.6295 12 7.83383 11.9931 8.47379 11.9639C9.11242 11.9348 9.54858 11.8333 9.93023 11.685C10.3248 11.5317 10.6594 11.3265 10.993 10.993C11.3265 10.6594 11.5317 10.3248 11.685 9.93023C11.8333 9.54858 11.9348 9.11242 11.9639 8.47379C11.9931 7.83383 12 7.6295 12 6.00001C12 4.3705 11.9931 4.16617 11.9639 3.52621C11.9348 2.88758 11.8333 2.45142 11.685 2.06977C11.5317 1.67522 11.3265 1.34061 10.993 1.00703C10.6594 0.673474 10.3248 0.468314 9.93023 0.315004C9.54858 0.166672 9.11242 0.0652349 8.47379 0.0361066C7.83383 0.00690694 7.6295 0 6.00001 0ZM6.00001 1.08108C7.60207 1.08108 7.79184 1.0872 8.42452 1.11607C9.00951 1.14274 9.32721 1.24049 9.53863 1.32266C9.8187 1.4315 10.0186 1.56152 10.2285 1.77149C10.4385 1.98143 10.5685 2.18131 10.6773 2.46137C10.7595 2.6728 10.8573 2.99049 10.8839 3.57549C10.9128 4.20816 10.9189 4.39794 10.9189 6.00001C10.9189 7.60207 10.9128 7.79184 10.8839 8.42451C10.8573 9.00951 10.7595 9.3272 10.6773 9.53863C10.5685 9.81869 10.4385 10.0186 10.2285 10.2285C10.0186 10.4385 9.8187 10.5685 9.53863 10.6773C9.32721 10.7595 9.00951 10.8573 8.42452 10.8839C7.79194 10.9128 7.60219 10.9189 6.00001 10.9189C4.39782 10.9189 4.20809 10.9128 3.57549 10.8839C2.99049 10.8573 2.6728 10.7595 2.46137 10.6773C2.18131 10.5685 1.98144 10.4385 1.77149 10.2285C1.56154 10.0186 1.4315 9.81869 1.32266 9.53863C1.24049 9.3272 1.14274 9.00951 1.11607 8.42451C1.0872 7.79184 1.08108 7.60207 1.08108 6.00001C1.08108 4.39794 1.0872 4.20816 1.11607 3.57549C1.14274 2.99049 1.24049 2.6728 1.32266 2.46137C1.4315 2.18131 1.56152 1.98143 1.77149 1.77149C1.98144 1.56152 2.18131 1.4315 2.46137 1.32266C2.6728 1.24049 2.99049 1.14274 3.57549 1.11607C4.20816 1.0872 4.39794 1.08108 6.00001 1.08108Z" fill="url(#paint5_radial_10_679)"/>
</g>
<defs>
<linearGradient id="paint0_linear_10_679" x1="0.700162" y1="0.630875" x2="4.48366" y2="15.2659" gradientUnits="userSpaceOnUse">
<stop stopColor="#5168FF"/>
<stop offset="0.142763" stopColor="#CF44FF"/>
<stop offset="0.761458" stopColor="#FF269C"/>
<stop offset="1" stopColor="#F26D4F"/>
</linearGradient>
<radialGradient id="paint1_radial_10_679" cx="0" cy="0" r="1" gradientUnits="userSpaceOnUse" gradientTransform="translate(3.63292 12) rotate(32.1601) scale(11.2074 8.06558)">
<stop stopColor="#FED276"/>
<stop offset="0.17024" stopColor="#FDBD61" stopOpacity="0.975006"/>
<stop offset="0.454081" stopColor="#F6804D"/>
<stop offset="1" stopColor="#E83D5C" stopOpacity="0.01"/>
</radialGradient>
<linearGradient id="paint2_linear_10_679" x1="0.700162" y1="0.630875" x2="4.48366" y2="15.2659" gradientUnits="userSpaceOnUse">
<stop stopColor="#5168FF"/>
<stop offset="0.142763" stopColor="#CF44FF"/>
<stop offset="0.761458" stopColor="#FF269C"/>
<stop offset="1" stopColor="#F26D4F"/>
</linearGradient>
<radialGradient id="paint3_radial_10_679" cx="0" cy="0" r="1" gradientUnits="userSpaceOnUse" gradientTransform="translate(3.63292 12) rotate(32.1601) scale(11.2074 8.06558)">
<stop stopColor="#FED276"/>
<stop offset="0.17024" stopColor="#FDBD61" stopOpacity="0.975006"/>
<stop offset="0.454081" stopColor="#F6804D"/>
<stop offset="1" stopColor="#E83D5C" stopOpacity="0.01"/>
</radialGradient>
<linearGradient id="paint4_linear_10_679" x1="0.700162" y1="0.630875" x2="4.48366" y2="15.2659" gradientUnits="userSpaceOnUse">
<stop stopColor="#5168FF"/>
<stop offset="0.142763" stopColor="#CF44FF"/>
<stop offset="0.761458" stopColor="#FF269C"/>
<stop offset="1" stopColor="#F26D4F"/>
</linearGradient>
<radialGradient id="paint5_radial_10_679" cx="0" cy="0" r="1" gradientUnits="userSpaceOnUse" gradientTransform="translate(3.63292 12) rotate(32.1601) scale(11.2074 8.06558)">
<stop stopColor="#FED276"/>
<stop offset="0.17024" stopColor="#FDBD61" stopOpacity="0.975006"/>
<stop offset="0.454081" stopColor="#F6804D"/>
<stop offset="1" stopColor="#E83D5C" stopOpacity="0.01"/>
</radialGradient>
</defs>
</svg>
