<svg width="10" height="10" viewBox="0 0 10 10" fill="none" xmlns="http://www.w3.org/2000/svg">
<g id="Group">
<path id="Vector" d="M9.25916 0.000745656H0.737911C0.335179 -0.00379927 0.00491512 0.318804 0 0.721541V9.27832C0.00474684 9.68125 0.334985 10.0042 0.737911 9.99994H9.25916C9.66288 10.0049 9.99441 9.68204 10 9.27832V0.720923C9.99424 0.317391 9.66269 -0.00519382 9.25916 6.33546e-05" fill="#0A66C2"/>
<g id="Vector_2">
<path d="M7.03917 8.5206H8.52086L8.52148 5.9029C8.52148 4.61782 8.24459 3.63 6.74283 3.63C6.16873 3.60869 5.62944 3.90489 5.3394 4.40081H5.31949V3.7487H3.89707V8.52045H5.37876V6.15989C5.37876 5.53741 5.49683 4.93453 6.26854 4.93453C7.02929 4.93453 7.03917 5.64684 7.03917 6.20017V8.5206Z" fill="white"/>
<path d="M1.36523 2.23672C1.36532 2.71161 1.75035 3.09652 2.22523 3.09643C2.45327 3.09639 2.67196 3.00576 2.83318 2.84447C2.99441 2.68319 3.08496 2.46446 3.08492 2.23641C3.08483 1.76153 2.6998 1.37662 2.22492 1.37671C1.75004 1.37679 1.36515 1.76184 1.36523 2.23672Z" fill="white"/>
<path d="M1.48284 8.5206H2.96607V3.7487H1.48284V8.5206Z" fill="white"/>
</g>
</g>
</svg>
