<svg width="22" height="22" viewBox="0 0 22 22" fill="none" xmlns="http://www.w3.org/2000/svg">
<g id="ic:twotone-whatsapp">
<path id="Vector" d="M19.7214 10.9266C19.7251 9.91429 19.5279 8.91133 19.1411 7.97581C18.7544 7.04023 18.1858 6.1907 17.4684 5.47646C16.0194 4.01825 14.0836 3.21414 12.0272 3.21414C7.78273 3.21414 4.32391 6.67296 4.32391 10.9175L4.32391 10.9176C4.32497 12.3658 4.73312 13.7846 5.50178 15.0121L5.50177 15.0121L5.50286 15.0138L5.6499 15.2417L4.9067 17.9638L4.83828 18.2144L5.08953 18.1484L7.88842 17.4128L8.10923 17.5453L8.11013 17.5458C9.29722 18.2468 10.6527 18.6208 12.0364 18.6208C16.2803 18.6208 19.7398 15.1717 19.7214 10.9266ZM19.7214 10.9266C19.7214 10.9268 19.7214 10.927 19.7214 10.9272L19.5714 10.9266M19.7214 10.9266C19.7214 10.9264 19.7214 10.9262 19.7214 10.926L19.5714 10.9266M19.5714 10.9266C19.5897 15.0883 16.1981 18.4708 12.0364 18.4708C10.6797 18.4708 9.35057 18.1041 8.18641 17.4166L4.47391 10.9175C4.47391 6.75581 7.86557 3.36414 12.0272 3.36414C14.0439 3.36414 15.9414 4.15247 17.3622 5.58247C18.0658 6.28277 18.6233 7.11575 19.0025 8.03311C19.3817 8.95048 19.5751 9.93399 19.5714 10.9266ZM9.68714 10.505L9.6872 10.5049C9.60703 10.3618 9.59021 10.2292 9.63452 10.1059C9.67352 9.99737 9.75488 9.91602 9.81092 9.85999L9.81284 9.85807C9.8765 9.79441 9.9497 9.70588 10.0264 9.61306C10.065 9.56637 10.1045 9.5186 10.1442 9.47235C10.2323 9.36954 10.2716 9.29066 10.3356 9.16218C10.3409 9.15141 10.3465 9.1403 10.3522 9.1288C10.3972 9.03213 10.3791 8.95573 10.3347 8.86706C10.2762 8.74992 9.81531 7.62483 9.63337 7.17003C9.54887 6.96761 9.47478 6.90974 9.43342 6.88986C9.39719 6.87245 9.37314 6.87216 9.32901 6.87162C9.3091 6.87137 9.28511 6.87108 9.25408 6.86914H8.81891C8.69822 6.86914 8.50306 6.91123 8.32535 7.10372C8.30965 7.12153 8.29192 7.14101 8.27257 7.16226C8.04056 7.41709 7.57557 7.92782 7.57557 8.90081C7.57557 9.42618 7.76812 9.95159 7.98097 10.3706C8.1905 10.783 8.41324 11.0799 8.46965 11.1551L8.47141 11.1575L8.474 11.1609L8.47395 11.161C8.47899 11.1681 8.48667 11.1793 8.49695 11.1943C8.71949 11.5191 10.1583 13.6191 12.2883 14.5381L12.2894 14.5385C12.8229 14.7736 13.2384 14.9092 13.5652 15.009L13.5674 15.0097L13.5674 15.0097C14.0773 15.1739 14.5464 15.1492 14.9302 15.0956C15.1218 15.0676 15.438 14.9414 15.732 14.7524C16.0298 14.561 16.2659 14.3298 16.3404 14.1136L16.3412 14.1114L16.3412 14.1114C16.433 13.8578 16.4783 13.6255 16.4932 13.4475C16.5007 13.3584 16.5003 13.2853 16.4953 13.2315C16.4914 13.1893 16.4854 13.1686 16.4835 13.1622C16.4827 13.1593 16.4827 13.1592 16.484 13.1613C16.4731 13.1442 16.4508 13.1225 16.3866 13.0883C16.3466 13.0671 16.3029 13.0469 16.2485 13.0219C16.2101 13.0042 16.1663 12.9841 16.1148 12.9594C16.0559 12.9311 15.9423 12.8758 15.8022 12.8075C15.3849 12.6042 14.7314 12.2858 14.5774 12.222C14.4694 12.1845 14.4127 12.171 14.3698 12.1757C14.3426 12.1787 14.3016 12.1913 14.2404 12.2773C14.2402 12.2776 14.2399 12.278 14.2396 12.2783L14.1172 12.1916C13.9614 12.4208 13.5306 12.9341 13.4022 13.0808L9.68714 10.505ZM9.68714 10.505L9.68945 10.5088C9.82798 10.7397 10.2868 11.499 10.9831 12.1202C11.74 12.7965 12.4062 13.0823 12.7181 13.2162C12.7684 13.2377 12.8095 13.2554 12.8403 13.2701C12.9641 13.3342 13.0874 13.3746 13.2098 13.3604C13.3392 13.3454 13.4374 13.2734 13.5165 13.178L9.68714 10.505ZM18.3556 4.60634L18.3562 4.60687C20.0421 6.29284 20.9706 8.53716 20.9706 10.9266C20.9706 15.8488 16.9586 19.8608 12.0364 19.8608C10.54 19.8608 9.07052 19.4822 7.76317 18.7699L7.71087 18.7414L7.65327 18.7566L3.09186 19.9556L4.30697 15.4944L4.32332 15.4344L4.29237 15.3804C3.51693 14.0279 3.10224 12.4952 3.10224 10.9175C3.10224 5.99532 7.11425 1.98331 12.0364 1.98331L12.0369 1.98331C13.2115 1.97921 14.3752 2.20904 15.4601 2.65939C16.5449 3.10974 17.5293 3.77159 18.3556 4.60634Z" fill="#0B0D23" stroke="white" stroke-width="0.3"/>
</g>
</svg>
