<svg width="16" height="16" viewBox="0 0 16 16" fill="none" xmlns="http://www.w3.org/2000/svg">
<g id="Menu / More_Grid_Small">
<g id="Vector">
<path d="M9.33301 9.99992C9.33301 10.3681 9.63148 10.6666 9.99967 10.6666C10.3679 10.6666 10.6663 10.3681 10.6663 9.99992C10.6663 9.63173 10.3679 9.33325 9.99967 9.33325C9.63148 9.33325 9.33301 9.63173 9.33301 9.99992Z" stroke="#88B4E9" strokeLinecap="round" stroke-linejoin="round"/>
<path d="M5.33301 9.99992C5.33301 10.3681 5.63148 10.6666 5.99967 10.6666C6.36786 10.6666 6.66634 10.3681 6.66634 9.99992C6.66634 9.63173 6.36786 9.33325 5.99967 9.33325C5.63148 9.33325 5.33301 9.63173 5.33301 9.99992Z" stroke="#88B4E9" strokeLinecap="round" stroke-linejoin="round"/>
<path d="M9.33301 5.99992C9.33301 6.36811 9.63148 6.66659 9.99967 6.66659C10.3679 6.66659 10.6663 6.36811 10.6663 5.99992C10.6663 5.63173 10.3679 5.33325 9.99967 5.33325C9.63148 5.33325 9.33301 5.63173 9.33301 5.99992Z" stroke="#88B4E9" strokeLinecap="round" stroke-linejoin="round"/>
<path d="M5.33301 5.99992C5.33301 6.36811 5.63148 6.66659 5.99967 6.66659C6.36786 6.66659 6.66634 6.36811 6.66634 5.99992C6.66634 5.63173 6.36786 5.33325 5.99967 5.33325C5.63148 5.33325 5.33301 5.63173 5.33301 5.99992Z" stroke="#88B4E9" strokeLinecap="round" stroke-linejoin="round"/>
</g>
</g>
</svg>
