<svg width="20" height="20" viewBox="0 0 20 20" fill="none" xmlns="http://www.w3.org/2000/svg">
<g id="phone">
<path id="Icon" d="M3.44389 4.96848C4.23722 10.8128 9.18688 15.7625 15.0312 16.5558C15.9759 16.684 16.8009 15.9937 16.9879 15.0589L17.2001 13.9979C17.377 13.1135 16.94 12.2202 16.1334 11.8168L15.3316 11.416C14.6568 11.0786 13.8373 11.272 13.3847 11.8756C13.0898 12.2687 12.6163 12.5083 12.1632 12.3184C10.6057 11.6655 8.33419 9.394 7.68131 7.83651C7.49136 7.38336 7.73101 6.90983 8.12409 6.61502C8.72764 6.16236 8.9211 5.34285 8.58371 4.66807L8.18283 3.86632C7.77949 3.05963 6.88614 2.62271 6.00175 2.79959L4.94078 3.01178C4.00593 3.19875 3.31565 4.02378 3.44389 4.96848Z" stroke="black" stroke-width="1.2" stroke-linecap="round" stroke-linejoin="round"/>
</g>
</svg>
