<svg width="12" height="12" viewBox="0 0 12 12" fill="none" xmlns="http://www.w3.org/2000/svg">
<g id="Whatsapp Fill">
<g id="Vector">
<path d="M1 11L1.70576 8.43456C1.27211 7.68197 1.04438 6.82841 1.04549 5.95982C1.04047 3.22275 3.26322 1 5.99498 1C7.32083 1 8.56573 1.51403 9.5031 2.4517C9.96513 2.91133 10.3313 3.45808 10.5805 4.06027C10.8297 4.66246 10.9569 5.30811 10.9548 5.95982C10.9548 8.69158 8.73205 10.9143 6 10.9143C5.16839 10.9143 4.35687 10.7075 3.63102 10.3096L1 11ZM3.74712 9.41743L3.89837 9.50812C4.53325 9.88379 5.25729 10.0822 5.99498 10.0827C8.26322 10.0827 10.1131 8.23309 10.1131 5.96455C10.1131 4.86588 9.68478 3.82777 8.90842 3.0517C8.52664 2.66776 8.07266 2.36318 7.57263 2.1555C7.0726 1.94783 6.53642 1.84116 5.99498 1.84165C3.72171 1.84195 1.87238 3.69158 1.87238 5.96012C1.87238 6.73619 2.08922 7.49749 2.50251 8.15273L2.59823 8.30901L2.17991 9.83102L3.74741 9.41772L3.74712 9.41743Z" fill="#2EB234"/>
<path fillRule="evenodd" clipRule="evenodd" d="M4.76012 3.88331C4.66942 3.67651 4.56869 3.67149 4.48301 3.67149C4.40739 3.66647 4.32644 3.66647 4.24077 3.66647C4.16041 3.66647 4.02422 3.6966 3.90842 3.82275C3.79232 3.9486 3.47504 4.24609 3.47504 4.85583C3.47504 5.46588 3.91846 6.05554 3.97902 6.13619C4.03929 6.21684 4.83575 7.50694 6.09601 8.0062C7.14417 8.4195 7.35598 8.33885 7.58286 8.31344C7.80945 8.28833 8.31374 8.01625 8.4195 7.72378C8.52024 7.43663 8.52024 7.18464 8.4901 7.13412C8.45997 7.0839 8.374 7.05347 8.25318 6.98789C8.12703 6.92762 7.5223 6.62511 7.4065 6.58464C7.2904 6.54446 7.20975 6.52437 7.1291 6.6452C7.04845 6.77134 6.81152 7.04845 6.73619 7.1291C6.66529 7.20975 6.58995 7.21979 6.46883 7.15923C6.34298 7.09897 5.94476 6.9678 5.4709 6.54446C5.10281 6.21654 4.85583 5.80857 4.78021 5.68774C4.7099 5.56159 4.77016 5.49601 4.83575 5.43545C4.89128 5.38021 4.96189 5.28951 5.02245 5.21891C5.08272 5.14801 5.10281 5.09276 5.1483 5.01211C5.18848 4.93146 5.16839 4.85583 5.13826 4.79557C5.10783 4.74003 4.8712 4.12998 4.76012 3.88301V3.88331Z" fill="#2EB234"/>
</g>
</g>
</svg>
